# xmcd
#
# Track frame offsets:
#	150
#	8835
#	30782
#	53655
#	73240
#	94530
#	114122
#	138372
#	157420
#	180297
#	204250
#
# Disc length: 3101 seconds
#
# Revision: 0
# Processed by: cddbd v1.4PL0 Copyright (c) Steve Scherf et al.
# Submitted via: dBpowerAMP V4.0
#
DISCID=800c1b0b
DTITLE=夏韶聲 - 一個夢兒
DYEAR=1996
DGENRE=Blues
TTITLE0=餘情還留
TTITLE1=一個夢兒
TTITLE2=再不哀求
TTITLE3=擔憂
TTITLE4=火種
TTITLE5=邂逅UFO
TTITLE6=怎麼會這樣
TTITLE7=撲火是我
TTITLE8=長遠的賭博
TTITLE9=不再相信
TTITLE10=昨天、今天
EXTD=Danny Summer 夏韶聲 - 一個夢兒
EXTT0=
EXTT1=
EXTT2=
EXTT3=
EXTT4=
EXTT5=
EXTT6=
EXTT7=
EXTT8=
EXTT9=
EXTT10=
PLAYORDER=
